HIERARCHY
ROOT hip
{
  OFFSET 0 0 0
  CHANNELS 6 Xposition Yposition Zposition Zrotation Yrotation Xrotation
  JOINT abdomen
  {
    OFFSET 0 20.6881 -0.73152
    CHANNELS 3 Zrotation Xrotation Yrotation
    JOINT chest
    {
      OFFSET 0 11.7043 -0.48768
      CHANNELS 3 Zrotation Xrotation Yrotation
      JOINT neck
      {
        OFFSET 0 22.1894 -2.19456
        CHANNELS 3 Zrotation Xrotation Yrotation
        JOINT head
        {
          OFFSET -0.24384 7.07133 1.2192
          CHANNELS 3 Zrotation Xrotation Yrotation
          JOINT leftEye
          {
            OFFSET 4.14528 8.04674 8.04672
            CHANNELS 3 Zrotation Xrotation Yrotation
            End Site
            {
              OFFSET 1 0 0
            }
          }
          JOINT rightEye
          {
            OFFSET -3.6576 8.04674 8.04672
            CHANNELS 3 Zrotation Xrotation Yrotation
            End Site
            {
              OFFSET 1 0 0
            }
          }
        }
      }
      JOINT rCollar
      {
        OFFSET -2.68224 19.2634 -4.8768
        CHANNELS 3 Zrotation Xrotation Yrotation
        JOINT rShldr
        {
          OFFSET -8.77824 -1.95073 1.46304
          CHANNELS 3 Zrotation Xrotation Yrotation
          JOINT rForeArm
          {
            OFFSET -28.1742 -1.7115 0.48768
            CHANNELS 3 Zrotation Xrotation Yrotation
            JOINT rHand
            {
              OFFSET -22.5879 0.773209 7.07136
              CHANNELS 3 Zrotation Xrotation Yrotation
              JOINT rThumb1
              {
                OFFSET -1.2192 -0.487915 3.41376
                CHANNELS 3 Zrotation Xrotation Yrotation
                JOINT rThumb2
                {
                  OFFSET -3.37035 -0.52449 3.41376
                  CHANNELS 3 Zrotation Xrotation Yrotation
                  End Site
                  {
                    OFFSET -1.78271 -1.18214 1.43049
                  }
                }
              }
              JOINT rIndex1
              {
                OFFSET -7.75947 0.938293 5.60832
                CHANNELS 3 Zrotation Xrotation Yrotation
                JOINT rIndex2
                {
                  OFFSET -2.54057 -0.884171 1.56538
                  CHANNELS 3 Zrotation Xrotation Yrotation
                  End Site
                  {
                    OFFSET -1.62519 -0.234802 1.16502
                  }
                }
              }
              JOINT rMid1
              {
                OFFSET -8.24714 1.18213 3.41376
                CHANNELS 3 Zrotation Xrotation Yrotation
                JOINT rMid2
                {
                  OFFSET -3.10165 -0.590103 1.0647
                  CHANNELS 3 Zrotation Xrotation Yrotation
                  End Site
                  {
                    OFFSET -2.48547 -0.328903 0.83742
                  }
                }
              }
              JOINT rRing1
              {
                OFFSET -8.82822 0.546677 1.51678
                CHANNELS 3 Zrotation Xrotation Yrotation
                JOINT rRing2
                {
                  OFFSET -2.60934 -0.819778 -0.0198488
                  CHANNELS 3 Zrotation Xrotation Yrotation
                  End Site
                  {
                    OFFSET -2.33842 -0.294052 0.168128
                  }
                }
              }
              JOINT rPinky1
              {
                OFFSET -8.27202 -0.0477905 -0.4584
                CHANNELS 3 Zrotation Xrotation Yrotation
                JOINT rPinky2
                {
                  OFFSET -1.82734 -0.647385 -0.700984
                  CHANNELS 3 Zrotation Xrotation Yrotation
                  End Site
                  {
                    OFFSET -1.69225 -0.51767 -0.607171
                  }
                }
              }
            }
          }
        }
      }
      JOINT lCollar
      {
        OFFSET 2.68224 19.2634 -4.8768
        CHANNELS 3 Zrotation Xrotation Yrotation
        JOINT lShldr
        {
          OFFSET 8.77824 -1.95073 1.46304
          CHANNELS 3 Zrotation Xrotation Yrotation
          JOINT lForeArm
          {
            OFFSET 28.1742 -1.7115 0.48768
            CHANNELS 3 Zrotation Xrotation Yrotation
            JOINT lHand
            {
              OFFSET 22.5879 0.773209 7.07136
              CHANNELS 3 Zrotation Xrotation Yrotation
              JOINT lThumb1
              {
                OFFSET 1.2192 -0.487915 3.41376
                CHANNELS 3 Zrotation Xrotation Yrotation
                JOINT lThumb2
                {
                  OFFSET 3.37035 -0.52449 3.41376
                  CHANNELS 3 Zrotation Xrotation Yrotation
                  End Site
                  {
                    OFFSET 1.78271 -1.18214 1.43049
                  }
                }
              }
              JOINT lIndex1
              {
                OFFSET 7.75947 0.938293 5.60832
                CHANNELS 3 Zrotation Xrotation Yrotation
                JOINT lIndex2
                {
                  OFFSET 2.54057 -0.884171 1.56538
                  CHANNELS 3 Zrotation Xrotation Yrotation
                  End Site
                  {
                    OFFSET 1.62519 -0.234802 1.16502
                  }
                }
              }
              JOINT lMid1
              {
                OFFSET 8.24714 1.18213 3.41376
                CHANNELS 3 Zrotation Xrotation Yrotation
                JOINT lMid2
                {
                  OFFSET 3.10165 -0.590103 1.0647
                  CHANNELS 3 Zrotation Xrotation Yrotation
                  End Site
                  {
                    OFFSET 2.48547 -0.328903 0.83742
                  }
                }
              }
              JOINT lRing1
              {
                OFFSET 8.82822 0.546677 1.51678
                CHANNELS 3 Zrotation Xrotation Yrotation
                JOINT lRing2
                {
                  OFFSET 2.60934 -0.819778 -0.0198488
                  CHANNELS 3 Zrotation Xrotation Yrotation
                  End Site
                  {
                    OFFSET 2.33842 -0.294052 0.168128
                  }
                }
              }
              JOINT lPinky1
              {
                OFFSET 8.27202 -0.0477905 -0.4584
                CHANNELS 3 Zrotation Xrotation Yrotation
                JOINT lPinky2
                {
                  OFFSET 1.82734 -0.647385 -0.700984
                  CHANNELS 3 Zrotation Xrotation Yrotation
                  End Site
                  {
                    OFFSET 1.69225 -0.51767 -0.607171
                  }
                }
              }
            }
          }
        }
      }
    }
  }
  JOINT rButtock
  {
    OFFSET -8.77824 4.35084 1.2192
    CHANNELS 3 Zrotation Xrotation Yrotation
    JOINT rThigh
    {
      OFFSET 0 -1.70687 -2.19456
      CHANNELS 3 Zrotation Xrotation Yrotation
      JOINT rShin
      {
        OFFSET 0 -36.8199 0.73152
        CHANNELS 3 Zrotation Xrotation Yrotation
        JOINT rFoot
        {
          OFFSET 0.73152 -45.1104 -5.12064
          CHANNELS 3 Zrotation Xrotation Yrotation
          End Site
          {
            OFFSET -1.1221 -3.69964 12.103
          }
        }
      }
    }
  }
  JOINT lButtock
  {
    OFFSET 8.77824 4.35084 1.2192
    CHANNELS 3 Zrotation Xrotation Yrotation
    JOINT lThigh
    {
      OFFSET 0 -1.70687 -2.19456
      CHANNELS 3 Zrotation Xrotation Yrotation
      JOINT lShin
      {
        OFFSET 0 -36.8199 0.73152
        CHANNELS 3 Zrotation Xrotation Yrotation
        JOINT lFoot
        {
          OFFSET -0.73152 -45.1104 -5.12064
          CHANNELS 3 Zrotation Xrotation Yrotation
          End Site
          {
            OFFSET 1.1221 -3.69964 12.103
          }
        }
      }
    }
  }
}
MOTION
Frames:	5
Frame Time:	0.00833333
2.66748 84.7178 -180.223 0.0 0.0 0.0 -0.462529 -0.00207378 -0.0132009 -0.127532 -0.00315853 -0.0220953 1.00573e-14 0.0 -1.8636e-17 3.01376e-14 3.18055e-15 -6.52262e-17 -0.0 0.0 0.0 -0.0 0.0 0.0 5.06786e-15 1.55301e-18 1.49089e-16 1.06551e-13 1.86361e-17 9.93923e-16 1.80218e-12 -5.37713e-13 -2.22639e-14 2.06323e-11 5.48447e-13 -1.59028e-14 4.86624e-11 2.0912e-14 -6.04305e-14 8.40275e-11 4.13472e-14 -1.15295e-13 4.86673e-11 2.22639e-14 -7.31528e-14 7.73091 5.47488 0.417314 4.86631e-11 2.09718e-14 -6.04305e-14 2.90554 0.965183 0.102902 4.86682e-11 2.09718e-14 -6.20208e-14 10.2786 0.731801 0.0259123 4.86561e-11 2.42517e-14 -5.40694e-14 2.22167 -0.733487 -0.20892 4.9711e-15 1.16475e-18 -1.49089e-16 1.02631e-13 -7.45443e-17 -3.97569e-16 1.80248e-12 5.40694e-13 -2.22639e-14 2.06258e-11 -5.30681e-13 6.36111e-15 4.86576e-11 1.99471e-14 -6.67917e-14 8.40346e-11 3.49861e-14 -1.02573e-13 4.86545e-11 2.18663e-14 -5.08889e-14 -7.73091 5.47488 -0.417314 4.86572e-11 2.0276e-14 -6.36111e-14 -2.90554 0.965183 -0.102902 4.86531e-11 1.99779e-14 -6.36111e-14 -10.2786 0.731801 -0.0259123 4.86597e-11 2.10712e-14 -6.99722e-14 -2.22167 -0.733487 0.20892 -2.03217e-16 0.0 -3.88251e-19 0.172368 -2.4816 -0.0258955 -0.00786744 -1.0571 -0.0680519 -0.522454 3.53839 0.132387 2.03217e-16 0.0 3.88251e-19 -0.875846 -4.26242 0.071058 0.00283235 2.1685 0.0189686 0.52772 2.09369 -0.103296
2.10014 83.7025 -182.185 -1.9269 3.706 4.2194 -1.06108 1.47195 1.5963 0.229726 -0.785154 0.428461 1.74808 3.13684 2.93468 -2.8949 -5.14499 5.25475 -0.0 0.0 0.0 -0.0 0.0 0.0 -2.44801e-14 -4.3508e-14 4.35292e-14 23.2945 1.86365 1.24133 -3.46835 -1.45126 5.54501 0.00279632 1.17476 0.164977 2.77589e-11 3.59692e-10 4.7273e-10 4.94833e-11 6.22208e-10 8.17607e-10 2.77635e-11 3.59694e-10 4.72716e-10 7.73091 5.47488 0.417314 2.7759e-11 3.59692e-10 4.7273e-10 2.90554 0.965183 0.102902 2.77644e-11 3.59693e-10 4.7273e-10 10.2786 0.731801 0.0259123 2.77528e-11 3.59696e-10 4.72738e-10 2.22167 -0.733487 -0.20892 -2.45759e-14 -4.35082e-14 4.32741e-14 -24.0253 2.18929 0.860707 5.45898 -2.78995 -8.16344 1.4471e-06 -0.0154753 0.00217491 1.46062e-11 -7.64771e-10 1.00338e-10 2.44656e-11 -1.32386e-09 1.74225e-10 1.46037e-11 -7.64769e-10 1.00353e-10 -7.73091 5.47488 -0.417314 1.4606e-11 -7.6477e-10 1.00342e-10 -2.90554 0.965183 -0.102902 1.46013e-11 -7.6477e-10 1.00341e-10 -10.2786 0.731801 -0.0259123 1.4608e-11 -7.64769e-10 1.00335e-10 -2.22167 -0.733487 0.20892 -2.03217e-16 0.0 -3.88251e-19 -1.52838 -3.25353 -0.366977 -0.00291402 3.26135 0.0235086 -0.660867 -0.0560382 -2.7333 2.03217e-16 0.0 3.88251e-19 -0.0601884 -4.77271 0.292468 -0.00730545 6.00879 -0.0549395 0.490105 -2.11186 0.580793
2.08889 83.7069 -182.171 -1.9521 3.6252 4.1648 -1.77939 3.02581 3.30929 0.618743 -1.60571 0.907256 3.28177 6.45613 6.10862 -4.97033 -10.4641 11.0226 -0.0 0.0 0.0 -0.0 0.0 0.0 -5.7118e-14 -9.12419e-14 9.3317e-14 47.8328 3.81115 2.56395 -6.83017 -2.9396 11.4169 -0.00162499 2.42401 0.340651 -9.36717e-12 7.8644e-10 1.01127e-09 -1.2893e-11 1.36039e-09 1.74916e-09 -9.36308e-12 7.86442e-10 1.01125e-09 7.73091 5.47488 0.417314 -9.36783e-12 7.8644e-10 1.01127e-09 2.90554 0.965183 0.102902 -9.36222e-12 7.8644e-10 1.01127e-09 10.2786 0.731801 0.0259123 -9.37328e-12 7.86444e-10 1.01128e-09 2.22167 -0.733487 -0.20892 -5.72149e-14 -9.12418e-14 9.31089e-14 -49.4919 4.5102 1.77066 10.372 -5.54847 -16.8512 5.49562e-06 -0.0282783 0.00397428 -3.66791e-11 -1.65241e-09 2.16061e-10 -6.50143e-11 -2.86045e-09 3.75152e-10 -3.6681e-11 -1.65241e-09 2.16076e-10 -7.73091 5.47488 -0.417314 -3.66793e-11 -1.65241e-09 2.16065e-10 -2.90554 0.965183 -0.102902 -3.66847e-11 -1.65241e-09 2.16063e-10 -10.2786 0.731801 -0.0259123 -3.66779e-11 -1.65241e-09 2.16058e-10 -2.22167 -0.733487 0.20892 -2.03217e-16 0.0 -3.88251e-19 -3.33511 -4.06189 -0.726973 -0.0128258 7.82503 0.121344 -1.19865 -3.83898 -5.77802 2.03217e-16 0.0 3.88251e-19 0.807282 -5.30816 0.527603 -0.00712213 10.0697 -0.134494 0.559491 -6.55741 1.30846
2.06275 83.7116 -182.156 -2.043 3.5431 4.1049 -2.50691 4.40608 4.82802 0.98116 -2.34858 1.33057 4.27355 9.31118 8.90915 -5.81057 -14.9077 16.2623 -0.0 0.0 0.0 -0.0 0.0 0.0 -8.3576e-14 -1.30527e-13 1.30289e-13 69.6403 5.58043 3.73978 -9.57359 -4.19094 16.6756 -0.0119391 3.52417 0.495765 -1.40479e-11 1.07904e-09 1.41831e-09 -1.96051e-11 1.86654e-09 2.45305e-09 -1.40441e-11 1.07904e-09 1.41829e-09 7.73091 5.47488 0.417314 -1.40492e-11 1.07904e-09 1.41831e-09 2.90554 0.965183 0.102902 -1.40434e-11 1.07904e-09 1.41831e-09 10.2786 0.731801 0.0259123 -1.40539e-11 1.07904e-09 1.41832e-09 2.22167 -0.733487 -0.20892 -8.36699e-14 -1.30527e-13 1.3012e-13 -72.2742 6.56192 2.59726 14.0547 -7.69165 -24.6979 7.86585e-06 -0.0464258 0.00652473 -5.34965e-11 -2.29435e-09 3.01148e-10 -9.46726e-11 -3.97165e-09 5.22879e-10 -5.34978e-11 -2.29435e-09 3.01162e-10 -7.73091 5.47488 -0.417314 -5.34965e-11 -2.29435e-09 3.01152e-10 -2.90554 0.965183 -0.102902 -5.35025e-11 -2.29435e-09 3.01149e-10 -10.2786 0.731801 -0.0259123 -5.34955e-11 -2.29435e-09 3.01145e-10 -2.22167 -0.733487 0.20892 -2.03217e-16 0.0 -3.88251e-19 -4.95753 -4.79677 -1.0511 -0.035014 11.8982 0.211026 -2.01802 -7.16577 -8.5313 2.03217e-16 0.0 3.88251e-19 1.58302 -5.79298 0.7364 0.00288954 13.6893 -0.207724 0.719934 -10.5171 1.98094
2.05111 83.7132 -182.152 -2.0666 3.466 4.094 -3.08001 5.36595 5.84884 1.25117 -2.89779 1.61425 4.63506 11.1088 10.6682 -5.69237 -17.7038 19.6818 -0.0 0.0 0.0 -0.0 0.0 0.0 -9.45842e-14 -1.48691e-13 1.35223e-13 84.7904 6.91418 4.5342 -11.352 -5.00448 20.3626 -0.0222224 4.25174 0.598653 6.2385e-11 1.03625e-09 1.49662e-09 1.12843e-10 1.79263e-09 2.58779e-09 6.23886e-11 1.03625e-09 1.49661e-09 7.73091 5.47488 0.417314 6.23831e-11 1.03625e-09 1.49662e-09 2.90554 0.965183 0.102902 6.23892e-11 1.03625e-09 1.49663e-09 10.2786 0.731801 0.0259123 6.23792e-11 1.03625e-09 1.49664e-09 2.22167 -0.733487 -0.20892 -9.46651e-14 -1.48691e-13 1.35074e-13 -88.2054 7.94624 3.20098 16.2701 -8.94057 -30.2449 7.44809e-06 -0.0779341 0.0109529 1.58563e-11 -2.32205e-09 3.09646e-10 2.52234e-11 -4.01939e-09 5.37605e-10 1.58551e-11 -2.32205e-09 3.09659e-10 -7.73091 5.47488 -0.417314 1.58564e-11 -2.32205e-09 3.09649e-10 -2.90554 0.965183 -0.102902 1.585e-11 -2.32205e-09 3.09646e-10 -10.2786 0.731801 -0.0259123 1.58575e-11 -2.32205e-09 3.09643e-10 -2.22167 -0.733487 0.20892 -2.03217e-16 0.0 -3.88251e-19 -6.10023 -5.34845 -1.28404 -0.0580558 14.7451 0.275687 -2.77567 -9.43508 -10.4752 2.03217e-16 0.0 3.88251e-19 2.1211 -6.15147 0.878525 0.0157071 16.2056 -0.260619 0.893523 -13.268 2.48232
